<?xml version="1.0" standalone="no"?>
<!DOCTYPE svg PUBLIC "-//W3C//DTD SVG 20010904//EN"
 "http://www.w3.org/TR/2001/REC-SVG-20010904/DTD/svg10.dtd">
<svg version="1.0" xmlns="http://www.w3.org/2000/svg"
 width="944.000000pt" height="944.000000pt" viewBox="0 0 944.000000 944.000000"
 preserveAspectRatio="xMidYMid meet">
<metadata>
Created by potrace 1.14, written by Peter Selinger 2001-2017
</metadata>
<g transform="translate(0.000000,944.000000) scale(0.100000,-0.100000)"
fill="#000000" stroke="none">
<path d="M5528 9434 c-3 -2 -31 -6 -64 -8 -75 -6 -189 -21 -189 -26 0 -1 -16
-3 -35 -5 -19 -2 -44 -6 -55 -9 -34 -9 -99 -25 -125 -29 -14 -3 -36 -10 -50
-15 -14 -5 -28 -10 -32 -11 -8 -1 -13 -2 -25 -6 -5 -1 -21 -5 -38 -10 -16 -4
-34 -10 -40 -14 -5 -3 -16 -6 -24 -7 -56 -9 -407 -172 -506 -235 -25 -16 -66
-42 -92 -59 -27 -16 -53 -34 -60 -40 -7 -5 -14 -10 -17 -10 -8 0 -180 -113
-187 -123 -3 -5 -10 -9 -15 -9 -5 -1 -52 -28 -104 -62 -173 -112 -390 -251
-415 -266 -82 -49 -180 -115 -183 -122 -2 -4 -9 -8 -16 -8 -7 0 -23 -9 -36
-20 -13 -11 -29 -20 -37 -20 -7 0 -13 -4 -13 -8 0 -5 -12 -15 -27 -23 -16 -8
-56 -33 -89 -56 -34 -24 -64 -43 -67 -43 -3 0 -29 -16 -58 -35 -30 -20 -61
-40 -69 -46 -92 -61 -201 -129 -206 -129 -3 0 -12 -6 -19 -12 -7 -7 -64 -44
-125 -83 -61 -38 -154 -98 -206 -132 -52 -34 -94 -59 -94 -55 0 4 -4 2 -8 -4
-4 -5 -59 -44 -122 -84 -63 -41 -119 -78 -125 -82 -224 -173 -384 -326 -498
-478 -23 -30 -45 -57 -48 -60 -12 -10 -119 -172 -119 -180 0 -5 -6 -15 -12
-22 -30 -31 -136 -243 -188 -373 -42 -105 -106 -311 -115 -370 -3 -17 -10 -52
-15 -80 -6 -27 -13 -63 -15 -80 -2 -16 -6 -46 -9 -65 -14 -85 -19 -158 -21
-350 -1 -113 1 -215 6 -228 6 -17 6 -21 -3 -16 -6 4 -9 3 -5 -2 6 -11 17 -79
23 -139 2 -22 6 -53 9 -70 4 -16 8 -39 10 -50 7 -39 16 -80 21 -94 2 -8 7 -30
10 -50 8 -45 96 -313 125 -378 12 -26 39 -85 60 -130 45 -94 47 -107 19 -130
-11 -10 -20 -21 -20 -25 0 -5 -12 -27 -27 -51 -14 -23 -26 -44 -26 -47 1 -3
-7 -16 -16 -30 -17 -26 -67 -126 -96 -195 -9 -22 -21 -49 -26 -60 -22 -50 -67
-185 -62 -185 3 0 1 -6 -4 -12 -9 -12 -19 -42 -28 -88 -2 -8 -8 -33 -14 -55
-14 -53 -50 -263 -59 -345 -9 -87 -9 -501 1 -570 4 -30 10 -71 12 -90 21 -170
94 -452 155 -595 52 -124 81 -190 105 -235 53 -103 89 -167 114 -205 14 -22
31 -48 36 -57 28 -47 177 -249 210 -284 5 -6 34 -39 63 -72 64 -73 170 -179
235 -236 27 -22 61 -52 75 -65 36 -33 192 -148 267 -197 33 -21 66 -45 73 -51
7 -7 18 -13 23 -13 5 0 27 -11 49 -25 154 -97 487 -237 695 -291 95 -25 196
-48 256 -58 19 -3 48 -8 64 -11 73 -12 94 -15 165 -22 91 -9 505 -9 576 0 129
16 150 19 168 24 11 3 34 7 51 9 36 3 191 40 256 61 25 8 52 16 60 17 16 3 18
4 139 49 47 18 87 32 90 32 31 4 264 126 395 207 44 27 89 55 100 61 11 7 22
15 25 18 3 3 34 23 70 44 36 21 86 54 113 72 26 18 47 31 47 27 0 -3 7 1 15 8
27 24 40 34 55 41 8 4 47 27 85 52 39 25 99 63 135 86 67 41 363 231 390 249
16 11 36 23 253 161 81 52 155 99 165 104 9 6 19 13 22 16 3 3 12 9 20 12 8 4
27 15 42 25 25 15 224 144 283 182 13 8 45 28 72 44 26 16 51 33 54 38 3 6 10
10 15 10 9 1 112 65 191 119 23 16 46 29 52 29 6 0 11 5 11 10 0 6 6 10 13 10
6 0 23 9 37 20 14 11 59 44 100 75 176 129 347 292 462 441 33 43 37 47 58 73
36 43 145 214 142 223 -1 4 3 8 8 8 6 0 15 12 20 26 6 15 19 38 29 53 10 14
20 31 22 36 1 6 21 51 44 100 74 160 100 234 143 395 36 132 41 157 67 320 16
101 20 173 20 375 0 204 -6 311 -20 386 -3 13 -7 39 -10 59 -3 20 -8 47 -11
60 -3 14 -7 35 -9 47 -2 11 -6 30 -9 41 -4 11 -9 30 -11 41 -3 12 -7 31 -10
43 -21 99 -114 345 -176 471 -22 43 -39 83 -39 88 0 6 11 25 25 43 14 18 25
38 25 44 0 7 3 12 8 12 4 0 12 10 18 23 6 12 31 61 57 110 25 48 43 87 39 87
-4 0 -2 4 3 8 13 9 45 78 45 97 0 7 3 15 8 17 4 2 18 35 30 73 13 39 26 77 29
85 4 8 7 18 8 23 2 4 4 10 5 15 2 4 4 12 5 17 1 6 8 30 15 55 17 56 14 45 28
110 22 106 26 125 36 200 4 25 9 56 12 70 16 83 23 465 11 595 -12 130 -43
299 -78 430 -6 22 -13 45 -14 50 -29 114 -105 305 -181 455 -52 103 -65 128
-85 160 -69 110 -105 164 -114 174 -7 6 -17 22 -24 34 -7 13 -19 31 -26 40 -8
9 -43 53 -77 97 -85 108 -114 141 -242 268 -106 105 -278 251 -343 290 -18 10
-33 23 -33 28 0 5 -5 9 -10 9 -6 0 -41 20 -78 44 -129 84 -412 234 -412 219 0
-3 -6 -1 -12 4 -11 8 -56 27 -193 79 -11 4 -23 8 -27 9 -5 2 -9 3 -10 5 -2 1
-10 3 -18 5 -8 2 -35 10 -60 18 -39 13 -80 25 -115 32 -5 2 -30 8 -55 15 -25
7 -54 13 -65 15 -19 3 -46 8 -105 20 -34 7 -142 23 -160 24 -8 0 -31 3 -50 6
-42 8 -516 16 -522 9z"/>
</g>
</svg>
